<?xml version="1.0" encoding="UTF-8"?>
<svg xmlns="http://www.w3.org/2000/svg" xmlns:xlink="http://www.w3.org/1999/xlink" width="171pt" height="39pt" viewBox="0 0 171 39" version="1.1">
<g id="surface1">
<path style=" stroke:none;fill-rule:nonzero;fill:rgb(13.72549%,12.156863%,12.54902%);fill-opacity:1;" d="M 143.84375 0.417969 C 146.160156 -0.21875 148.652344 -0.0664062 150.96875 0.546875 C 152.960938 1.054688 154.882812 1.910156 156.699219 2.894531 C 157.246094 3.226562 157.792969 3.554688 158.382812 3.859375 C 161.441406 5.8125 164.304688 8.09375 166.929688 10.640625 C 168.261719 11.933594 169.617188 13.207031 170.84375 14.609375 C 166.929688 14.632812 163.015625 14.632812 159.101562 14.652344 C 158.972656 14.652344 158.820312 14.675781 158.730469 14.542969 C 158.273438 13.996094 157.792969 13.449219 157.332031 12.878906 C 156.304688 11.800781 155.34375 10.640625 154.273438 9.609375 C 153.636719 9.015625 153.046875 8.402344 152.390625 7.855469 C 150.597656 6.363281 148.71875 4.957031 146.597656 4.015625 C 144.894531 3.335938 143.035156 2.894531 141.222656 3.269531 C 139.035156 3.597656 137.199219 5.046875 135.820312 6.757812 C 137.285156 5.265625 139.210938 4.144531 141.308594 4.035156 C 143.757812 3.90625 146.09375 4.871094 148.171875 6.121094 C 148.742188 6.425781 149.222656 6.84375 149.769531 7.195312 C 151.34375 8.3125 152.761719 9.609375 154.140625 10.96875 C 154.839844 11.738281 155.605469 12.4375 156.28125 13.226562 C 158.097656 15.226562 159.78125 17.351562 161.441406 19.480469 L 161.398438 19.480469 C 161.027344 19.480469 160.675781 19.480469 160.328125 19.480469 C 156.851562 19.371094 153.398438 19.28125 149.921875 19.171875 C 149.679688 19.21875 149.617188 18.953125 149.507812 18.800781 C 147.886719 16.191406 146.140625 13.601562 143.777344 11.605469 C 142.574219 10.597656 141.113281 9.761719 139.539062 9.761719 C 138.074219 9.761719 136.71875 10.550781 135.691406 11.5625 C 134.160156 13.074219 133.042969 14.984375 132.082031 16.914062 C 131.667969 17.792969 131.230469 18.667969 130.878906 19.589844 C 130.507812 19.566406 130.136719 19.566406 129.765625 19.546875 C 130.726562 15.90625 132.039062 12.328125 133.898438 9.039062 C 135.121094 6.910156 136.585938 4.914062 138.445312 3.3125 C 139.996094 1.972656 141.832031 0.921875 143.84375 0.417969 Z M 143.84375 0.417969 "/>
<path style=" stroke:none;fill-rule:nonzero;fill:rgb(7.45098%,23.529412%,54.117647%);fill-opacity:1;" d="M 129.765625 19.546875 C 130.136719 19.566406 130.507812 19.566406 130.878906 19.589844 C 134.378906 19.742188 137.898438 19.765625 141.417969 19.917969 C 141.703125 20.226562 141.875 20.644531 142.117188 20.996094 C 143.496094 23.144531 145.003906 25.25 146.859375 26.984375 C 147.996094 27.992188 149.308594 28.9375 150.816406 29.222656 C 152.152344 29.484375 153.570312 29.046875 154.644531 28.210938 C 156.0625 27.136719 157.136719 25.644531 158.054688 24.132812 C 158.90625 22.617188 159.671875 21.082031 160.328125 19.480469 C 160.675781 19.480469 161.027344 19.480469 161.398438 19.480469 C 160.632812 22.375 159.628906 25.207031 158.335938 27.882812 C 157.222656 30.316406 155.78125 32.578125 153.988281 34.53125 C 152.566406 36.042969 150.882812 37.292969 149.003906 38.0625 C 147.496094 38.71875 145.855469 39.003906 144.214844 39.046875 C 143.320312 38.984375 142.402344 38.9375 141.484375 38.785156 C 139.382812 38.367188 137.328125 37.621094 135.40625 36.636719 C 134.554688 36.261719 133.789062 35.734375 132.980469 35.296875 C 129.613281 33.167969 126.53125 30.625 123.6875 27.816406 C 122.53125 26.765625 121.457031 25.601562 120.367188 24.480469 C 124.367188 24.417969 128.34375 24.4375 132.324219 24.394531 C 135.230469 27.792969 138.246094 31.171875 141.964844 33.652344 C 143.035156 34.332031 144.148438 34.925781 145.332031 35.386719 C 146.839844 35.867188 148.433594 36.152344 150.007812 35.847656 C 152.214844 35.449219 154.117188 34.003906 155.472656 32.203125 C 154.425781 33.191406 153.246094 34.113281 151.890625 34.59375 C 150.730469 34.992188 149.460938 35.121094 148.261719 34.925781 C 145.855469 34.59375 143.648438 33.433594 141.703125 32.007812 C 140.628906 31.328125 139.710938 30.472656 138.75 29.660156 C 137.089844 28.125 135.535156 26.480469 134.027344 24.789062 C 132.542969 23.101562 131.164062 21.324219 129.765625 19.546875 Z M 129.765625 19.546875 "/>
<path style=" stroke:none;fill-rule:nonzero;fill:rgb(7.45098%,23.529412%,54.117647%);fill-opacity:1;" d="M 11.324219 9.785156 C 11.28125 10.574219 11.039062 11.230469 10.582031 11.757812 C 10.144531 12.285156 9.488281 12.679688 8.65625 12.898438 C 8.023438 13.074219 7.105469 13.183594 5.902344 13.183594 C 4.480469 13.164062 3.433594 13.074219 2.734375 12.855469 C 1.945312 12.636719 1.355469 12.261719 0.894531 11.738281 C 0.460938 11.210938 0.195312 10.550781 0.132812 9.742188 C 0.0664062 9.191406 0.152344 8.554688 0.351562 7.855469 L 0.460938 7.546875 L 2.207031 7.917969 L 2.140625 8.269531 C 2.03125 8.90625 1.96875 9.324219 1.988281 9.519531 C 2.03125 9.9375 2.164062 10.289062 2.40625 10.53125 C 2.644531 10.792969 3.015625 10.96875 3.496094 11.078125 C 4.023438 11.1875 4.632812 11.253906 5.335938 11.253906 C 5.550781 11.253906 5.75 11.253906 5.925781 11.253906 C 6.339844 11.253906 6.558594 11.253906 6.644531 11.230469 C 7.324219 11.210938 7.761719 11.1875 7.933594 11.144531 C 8.4375 11.011719 8.808594 10.816406 9.050781 10.574219 C 9.289062 10.3125 9.421875 9.980469 9.445312 9.566406 C 9.464844 9.324219 9.421875 8.90625 9.289062 8.292969 L 9.246094 7.964844 L 10.972656 7.589844 L 11.0625 7.898438 C 11.28125 8.511719 11.347656 9.148438 11.324219 9.785156 Z M 6.6875 5.484375 L 7.628906 6.425781 L 6.6875 7.371094 L 5.769531 6.425781 Z M 4.699219 5.484375 L 5.640625 6.425781 L 4.699219 7.371094 L 3.761719 6.425781 Z M 12.417969 3.597656 L 14.253906 3.597656 L 14.253906 13.164062 L 12.417969 13.164062 Z M 17.949219 12.109375 C 18.035156 11.363281 17.859375 10.660156 17.402344 10.003906 L 17.183594 9.695312 L 18.800781 8.820312 L 18.976562 9.082031 C 19.632812 10.070312 19.894531 11.167969 19.742188 12.351562 C 19.585938 13.535156 19.105469 14.457031 18.277344 15.136719 C 17.445312 15.796875 16.285156 16.210938 14.84375 16.34375 L 14.515625 16.386719 L 14.1875 14.566406 L 14.582031 14.542969 C 15.652344 14.457031 16.460938 14.214844 17.007812 13.796875 C 17.554688 13.402344 17.859375 12.832031 17.949219 12.109375 Z M 22.667969 9.675781 L 24.289062 8.796875 L 24.441406 9.125 C 24.59375 9.433594 24.8125 9.851562 25.074219 10.355469 C 25.226562 10.683594 25.425781 10.902344 25.621094 11.035156 C 25.839844 11.1875 26.078125 11.253906 26.34375 11.253906 L 26.582031 11.253906 L 26.582031 13.183594 L 26.429688 13.183594 C 25.859375 13.183594 25.425781 13.097656 25.097656 12.964844 C 24.832031 13.972656 24.308594 14.742188 23.5 15.3125 C 22.691406 15.882812 21.621094 16.210938 20.285156 16.34375 L 19.957031 16.386719 L 19.632812 14.566406 L 20.023438 14.542969 C 21.074219 14.457031 21.882812 14.195312 22.429688 13.796875 C 22.976562 13.402344 23.28125 12.832031 23.390625 12.085938 C 23.476562 11.472656 23.304688 10.769531 22.84375 9.980469 Z M 29.597656 8.996094 C 29.445312 9.148438 29.382812 9.324219 29.382812 9.542969 C 29.382812 9.742188 29.445312 9.9375 29.597656 10.070312 C 29.753906 10.222656 29.949219 10.3125 30.167969 10.3125 C 30.386719 10.3125 30.582031 10.222656 30.734375 10.070312 C 30.890625 9.9375 30.953125 9.742188 30.953125 9.542969 C 30.953125 9.324219 30.890625 9.148438 30.734375 8.996094 C 30.582031 8.839844 30.386719 8.773438 30.167969 8.773438 C 29.949219 8.773438 29.753906 8.839844 29.597656 8.996094 Z M 31.457031 7.285156 C 32.199219 7.679688 32.617188 8.203125 32.726562 8.863281 C 32.835938 9.410156 32.8125 9.9375 32.636719 10.421875 C 32.527344 10.707031 32.355469 10.992188 32.136719 11.230469 C 32.417969 11.253906 32.746094 11.253906 33.164062 11.253906 L 34.167969 11.253906 L 34.167969 13.164062 L 32.222656 13.183594 C 31.546875 13.183594 30.84375 12.941406 30.167969 12.503906 C 29.425781 12.941406 28.746094 13.183594 28.113281 13.183594 L 26.144531 13.183594 L 26.144531 11.253906 L 27.171875 11.253906 C 27.566406 11.253906 27.917969 11.230469 28.199219 11.210938 C 28.003906 10.992188 27.851562 10.75 27.742188 10.464844 C 27.523438 9.960938 27.5 9.410156 27.652344 8.839844 C 27.871094 8.050781 28.351562 7.523438 29.074219 7.21875 C 29.402344 7.085938 29.773438 7 30.191406 7 C 30.734375 7 31.152344 7.109375 31.457031 7.285156 Z M 31.0625 4.015625 L 32.003906 4.9375 L 31.0625 5.878906 L 30.125 4.9375 Z M 29.054688 4.015625 L 29.992188 4.9375 L 29.054688 5.878906 L 28.113281 4.9375 Z M 39.328125 12.394531 C 38.890625 12.898438 38.300781 13.140625 37.558594 13.140625 C 36.746094 13.140625 36.09375 12.988281 35.609375 12.679688 C 35.261719 13.007812 34.78125 13.183594 34.167969 13.183594 L 33.535156 13.183594 L 33.535156 11.253906 L 34.277344 11.253906 C 34.429688 11.253906 34.519531 11.230469 34.5625 11.1875 C 34.648438 10.550781 34.714844 10.199219 34.714844 10.179688 L 34.714844 10.136719 C 34.910156 9.390625 35.238281 8.796875 35.71875 8.359375 C 36.113281 7.984375 36.550781 7.789062 37.054688 7.722656 C 37.710938 7.65625 38.277344 7.808594 38.757812 8.183594 C 39.503906 8.730469 39.851562 9.609375 39.851562 10.816406 C 39.851562 11.496094 39.675781 12.023438 39.328125 12.394531 Z M 37.449219 11.453125 C 37.667969 11.453125 37.839844 11.386719 37.972656 11.253906 C 38.082031 11.144531 38.101562 10.882812 38.039062 10.464844 C 38.015625 10.15625 37.949219 9.960938 37.863281 9.804688 C 37.777344 9.675781 37.644531 9.585938 37.511719 9.566406 C 37.164062 9.476562 36.878906 9.585938 36.683594 9.894531 C 36.464844 10.179688 36.355469 10.574219 36.332031 11.101562 C 36.726562 11.339844 37.097656 11.472656 37.449219 11.453125 Z M 46.714844 9.785156 C 46.433594 9.761719 46.234375 9.785156 46.105469 9.804688 C 46.082031 10.15625 46.0625 10.464844 46.105469 10.707031 C 46.171875 11.320312 46.476562 11.605469 47 11.539062 C 47.242188 11.496094 47.371094 11.386719 47.4375 11.144531 C 47.480469 10.992188 47.480469 10.792969 47.460938 10.550781 C 47.4375 10.265625 47.371094 10.089844 47.261719 9.980469 C 47.152344 9.871094 46.957031 9.804688 46.714844 9.785156 Z M 49.207031 11.210938 C 49.296875 11.253906 49.425781 11.253906 49.601562 11.253906 L 50.300781 11.253906 L 50.300781 13.183594 L 49.492188 13.183594 C 48.988281 13.183594 48.574219 13.074219 48.3125 12.878906 C 48.289062 12.898438 48.269531 12.898438 48.269531 12.898438 C 47.941406 13.117188 47.546875 13.226562 47.089844 13.25 C 46.628906 13.273438 46.234375 13.207031 45.929688 13.097656 C 45.449219 12.898438 45.078125 12.59375 44.835938 12.152344 C 44.597656 11.714844 44.441406 11.1875 44.421875 10.574219 C 44.332031 10.882812 44.289062 11.339844 44.289062 11.933594 C 44.289062 12.195312 44.289062 12.878906 44.289062 13.953125 L 44.289062 16.429688 L 42.453125 16.429688 L 42.453125 11.386719 C 42.519531 10.507812 42.757812 9.785156 43.152344 9.234375 C 43.570312 8.6875 44.136719 8.335938 44.878906 8.203125 C 45.863281 8.007812 46.804688 8.007812 47.722656 8.226562 C 48.203125 8.335938 48.574219 8.597656 48.835938 8.996094 C 49.054688 9.324219 49.164062 9.742188 49.207031 10.265625 C 49.230469 10.53125 49.230469 10.835938 49.207031 11.210938 Z M 52.398438 12.59375 C 51.964844 12.988281 51.394531 13.183594 50.738281 13.183594 L 50.0625 13.183594 L 50.0625 11.253906 L 50.410156 11.253906 C 50.828125 11.253906 51.089844 11.1875 51.21875 11.054688 C 51.394531 10.902344 51.480469 10.683594 51.503906 10.398438 L 51.699219 8.597656 L 53.121094 8.597656 L 53.296875 10.398438 C 53.339844 10.683594 53.429688 10.902344 53.601562 11.035156 C 53.753906 11.1875 54.0625 11.253906 54.476562 11.253906 L 54.847656 11.253906 L 54.847656 13.183594 L 54.0625 13.183594 C 53.40625 13.183594 52.835938 12.988281 52.398438 12.59375 Z M 52.992188 14.367188 L 53.929688 15.3125 L 52.992188 16.234375 L 52.074219 15.3125 Z M 51 14.367188 L 51.941406 15.3125 L 51 16.234375 L 50.0625 15.3125 Z M 58.609375 11.1875 L 59.242188 11.1875 C 60.03125 11.1875 60.730469 11.035156 61.339844 10.726562 C 61.910156 10.484375 62.214844 10.136719 62.304688 9.71875 C 62.324219 9.453125 62.304688 9.257812 62.195312 9.125 C 62.105469 8.996094 61.929688 8.90625 61.667969 8.863281 C 61.1875 8.773438 60.6875 8.949219 60.160156 9.367188 C 59.59375 9.871094 59.066406 10.464844 58.609375 11.1875 Z M 63.898438 10.769531 C 63.988281 10.882812 64.03125 10.945312 64.074219 10.992188 C 64.335938 11.167969 64.621094 11.253906 64.96875 11.253906 L 65.386719 11.253906 L 65.386719 13.183594 L 64.578125 13.183594 C 63.769531 13.183594 63.113281 12.878906 62.609375 12.308594 C 61.757812 12.878906 60.773438 13.183594 59.65625 13.183594 L 54.433594 13.183594 L 54.433594 11.253906 L 55.613281 11.253906 L 55.613281 3.597656 L 57.449219 3.597656 L 57.449219 9.761719 C 58.257812 8.488281 59.175781 7.613281 60.203125 7.152344 C 61.078125 6.757812 61.929688 6.734375 62.742188 7.109375 C 63.636719 7.503906 64.097656 8.378906 64.097656 9.761719 C 64.097656 10.136719 64.03125 10.464844 63.898438 10.769531 Z M 60.792969 3.621094 L 61.734375 4.5625 L 60.792969 5.507812 L 59.855469 4.5625 Z M 67.289062 12.59375 C 66.851562 12.988281 66.304688 13.183594 65.625 13.183594 L 64.949219 13.183594 L 64.949219 11.253906 L 65.296875 11.253906 C 65.714844 11.253906 65.976562 11.1875 66.128906 11.054688 C 66.28125 10.902344 66.371094 10.683594 66.414062 10.398438 L 66.589844 8.597656 L 68.007812 8.597656 L 68.207031 10.398438 C 68.226562 10.683594 68.316406 10.902344 68.488281 11.035156 C 68.644531 11.1875 68.949219 11.253906 69.363281 11.253906 L 69.734375 11.253906 L 69.734375 13.183594 L 68.972656 13.183594 C 68.292969 13.183594 67.746094 12.988281 67.289062 12.59375 Z M 66.894531 5.683594 L 67.835938 6.625 L 66.894531 7.546875 L 65.953125 6.625 Z M 72.117188 12.460938 C 71.570312 12.941406 70.828125 13.183594 69.890625 13.183594 L 69.296875 13.183594 L 69.296875 11.253906 L 69.933594 11.253906 C 70.019531 11.253906 70.085938 11.253906 70.152344 11.253906 C 70.589844 11.1875 70.871094 11.078125 71.027344 10.882812 C 71.289062 10.53125 71.375 10.003906 71.308594 9.300781 C 71.289062 8.820312 71.199219 8.378906 71.113281 7.984375 L 71.027344 7.632812 L 72.730469 7.261719 L 72.839844 7.546875 C 72.992188 8.007812 73.082031 8.578125 73.125 9.234375 C 73.191406 10.75 72.863281 11.824219 72.117188 12.460938 Z M 72.554688 4.386719 L 73.496094 5.332031 L 72.554688 6.273438 L 71.617188 5.332031 Z M 70.566406 4.386719 L 71.484375 5.332031 L 70.566406 6.273438 L 69.625 5.332031 Z M 85.214844 11.671875 C 84.996094 12.878906 84.492188 13.796875 83.683594 14.414062 C 82.894531 15.027344 81.867188 15.3125 80.578125 15.289062 C 79.222656 15.289062 78.152344 14.984375 77.367188 14.347656 C 76.601562 13.710938 76.140625 12.8125 76.03125 11.605469 C 75.902344 10.441406 76.121094 9.324219 76.6875 8.269531 L 76.820312 8.007812 L 78.546875 8.535156 L 78.394531 8.882812 C 77.933594 10.027344 77.757812 10.902344 77.867188 11.515625 C 78 12.152344 78.261719 12.636719 78.675781 12.964844 C 79.113281 13.273438 79.726562 13.425781 80.535156 13.449219 C 81.496094 13.46875 82.195312 13.273438 82.65625 12.8125 C 83.136719 12.351562 83.378906 11.625 83.421875 10.597656 C 83.441406 10.113281 83.269531 9.324219 82.941406 8.25 L 82.832031 7.898438 L 84.601562 7.4375 L 84.710938 7.742188 C 85.234375 9.28125 85.410156 10.574219 85.214844 11.671875 Z M 80.578125 6.078125 L 81.519531 7.019531 L 80.578125 7.964844 L 79.660156 7.019531 Z M 86.523438 10.027344 L 86.523438 3.597656 L 88.363281 3.597656 L 88.363281 9.9375 C 88.363281 10.3125 88.40625 10.597656 88.515625 10.792969 C 88.601562 10.945312 88.710938 11.054688 88.863281 11.144531 C 89.015625 11.210938 89.234375 11.253906 89.5 11.253906 L 90.132812 11.253906 L 90.132812 13.183594 L 89.367188 13.183594 C 88.796875 13.183594 88.316406 13.074219 87.902344 12.832031 C 87.488281 12.613281 87.179688 12.285156 86.941406 11.847656 C 86.679688 11.296875 86.523438 10.683594 86.523438 10.027344 Z M 95.3125 12.394531 C 94.875 12.898438 94.285156 13.140625 93.542969 13.140625 C 92.734375 13.140625 92.078125 12.988281 91.597656 12.679688 C 91.246094 13.007812 90.765625 13.183594 90.152344 13.183594 L 89.519531 13.183594 L 89.519531 11.253906 L 90.261719 11.253906 C 90.417969 11.253906 90.503906 11.230469 90.546875 11.1875 C 90.636719 10.550781 90.699219 10.199219 90.699219 10.179688 L 90.699219 10.136719 C 90.898438 9.390625 91.226562 8.796875 91.707031 8.359375 C 92.097656 7.984375 92.535156 7.789062 93.039062 7.722656 C 93.695312 7.65625 94.265625 7.808594 94.746094 8.183594 C 95.488281 8.730469 95.835938 9.609375 95.835938 10.816406 C 95.835938 11.496094 95.664062 12.023438 95.3125 12.394531 Z M 93.433594 11.453125 C 93.652344 11.453125 93.828125 11.386719 93.957031 11.253906 C 94.066406 11.144531 94.089844 10.882812 94.023438 10.464844 C 94 10.15625 93.9375 9.960938 93.847656 9.804688 C 93.738281 9.675781 93.628906 9.585938 93.5 9.566406 C 93.148438 9.476562 92.863281 9.585938 92.667969 9.894531 C 92.449219 10.179688 92.339844 10.574219 92.316406 11.101562 C 92.710938 11.339844 93.082031 11.472656 93.433594 11.453125 Z M 99.117188 12.109375 C 99.203125 11.363281 99.007812 10.660156 98.570312 10.003906 L 98.351562 9.695312 L 99.96875 8.820312 L 100.144531 9.082031 C 100.800781 10.070312 101.0625 11.167969 100.910156 12.351562 C 100.757812 13.535156 100.277344 14.457031 99.445312 15.136719 C 98.59375 15.796875 97.457031 16.210938 95.992188 16.34375 L 95.683594 16.386719 L 95.355469 14.566406 L 95.75 14.542969 C 96.820312 14.457031 97.628906 14.214844 98.175781 13.796875 C 98.703125 13.402344 99.03125 12.832031 99.117188 12.109375 Z M 98.964844 5.59375 L 99.902344 6.539062 L 98.964844 7.480469 L 98.023438 6.539062 Z M 102.15625 10.027344 L 102.15625 3.597656 L 103.96875 3.597656 L 103.96875 9.9375 C 103.96875 10.3125 104.035156 10.597656 104.121094 10.792969 C 104.210938 10.945312 104.320312 11.054688 104.472656 11.144531 C 104.648438 11.210938 104.84375 11.253906 105.105469 11.253906 L 105.742188 11.253906 L 105.742188 13.183594 L 104.976562 13.183594 C 104.429688 13.183594 103.949219 13.074219 103.53125 12.832031 C 103.117188 12.613281 102.789062 12.285156 102.570312 11.847656 C 102.285156 11.296875 102.15625 10.683594 102.15625 10.027344 Z M 107.640625 12.789062 C 107.25 13.054688 106.832031 13.183594 106.351562 13.183594 L 105.128906 13.183594 L 105.128906 11.253906 L 105.9375 11.253906 C 106.332031 11.253906 106.613281 11.167969 106.8125 11.011719 C 107.007812 10.859375 107.140625 10.574219 107.183594 10.222656 L 107.425781 8.820312 L 108.734375 8.820312 L 108.886719 10.246094 C 108.933594 10.617188 109.019531 10.882812 109.171875 11.054688 C 109.347656 11.210938 109.589844 11.296875 109.894531 11.296875 C 110.222656 11.296875 110.460938 11.253906 110.570312 11.167969 C 110.703125 11.078125 110.789062 10.925781 110.8125 10.726562 L 111.03125 8.820312 L 112.429688 8.820312 L 112.625 10.574219 C 112.648438 10.882812 112.734375 11.078125 112.84375 11.1875 C 112.976562 11.296875 113.152344 11.339844 113.414062 11.296875 C 113.699219 11.277344 113.894531 10.925781 114.003906 10.246094 C 114.046875 9.980469 114.027344 9.675781 113.980469 9.324219 C 113.917969 8.796875 113.828125 8.402344 113.71875 8.160156 L 113.546875 7.765625 L 115.292969 7.394531 L 115.402344 7.65625 C 115.621094 8.140625 115.730469 8.839844 115.773438 9.742188 C 115.820312 10.707031 115.621094 11.515625 115.183594 12.152344 C 114.703125 12.832031 114.113281 13.164062 113.390625 13.183594 C 112.605469 13.183594 112.035156 12.988281 111.664062 12.59375 C 111.316406 12.988281 110.726562 13.183594 109.917969 13.183594 C 109.042969 13.164062 108.40625 12.941406 108.015625 12.527344 C 107.925781 12.59375 107.796875 12.703125 107.640625 12.789062 Z M 107.640625 12.789062 "/>
<path style=" stroke:none;fill-rule:nonzero;fill:rgb(7.45098%,23.529412%,54.117647%);fill-opacity:1;" d="M 6.054688 29.964844 C 5.835938 29.945312 5.660156 29.835938 5.53125 29.679688 C 5.398438 29.527344 5.3125 29.332031 5.246094 29.109375 C 5.203125 28.980469 5.179688 28.871094 5.179688 28.78125 C 5.160156 28.695312 5.160156 28.605469 5.203125 28.476562 C 5.226562 28.363281 5.269531 28.253906 5.355469 28.191406 C 5.421875 28.125 5.507812 28.078125 5.617188 28.058594 L 9.925781 28.058594 L 9.925781 29.964844 L 9.203125 29.964844 C 9.246094 30.1875 9.269531 30.425781 9.203125 30.691406 C 9.160156 31.042969 8.984375 31.371094 8.679688 31.65625 C 8.371094 31.964844 7.980469 32.25 7.453125 32.511719 C 6.40625 33.082031 5.09375 33.300781 3.5625 33.148438 C 2.515625 33.058594 1.726562 32.707031 1.160156 32.09375 C 0.613281 31.503906 0.328125 30.667969 0.304688 29.617188 C 0.304688 28.871094 0.460938 28.035156 0.808594 27.113281 L 0.917969 26.828125 L 2.667969 27.269531 L 2.558594 27.621094 C 2.316406 28.363281 2.1875 29 2.1875 29.507812 C 2.207031 30.140625 2.382812 30.601562 2.734375 30.910156 C 3.105469 31.21875 3.671875 31.371094 4.480469 31.371094 C 5.378906 31.371094 6.207031 31.128906 6.972656 30.667969 C 7.105469 30.582031 7.214844 30.492188 7.300781 30.425781 C 7.390625 30.339844 7.433594 30.273438 7.476562 30.25 C 7.5 30.207031 7.5 30.164062 7.519531 30.140625 C 7.519531 30.097656 7.453125 30.03125 7.367188 29.964844 Z M 12.351562 29.265625 C 11.804688 29.726562 11.0625 29.964844 10.121094 29.964844 L 9.53125 29.964844 L 9.53125 28.058594 L 10.164062 28.058594 C 10.253906 28.058594 10.316406 28.035156 10.382812 28.035156 C 10.800781 27.992188 11.105469 27.859375 11.257812 27.664062 C 11.5 27.3125 11.609375 26.785156 11.542969 26.082031 C 11.5 25.601562 11.433594 25.164062 11.347656 24.765625 L 11.257812 24.417969 L 12.964844 24.066406 L 13.074219 24.351562 C 13.226562 24.8125 13.3125 25.359375 13.355469 26.019531 C 13.421875 27.554688 13.09375 28.628906 12.351562 29.265625 Z M 12.394531 31.152344 L 13.335938 32.09375 L 12.394531 33.039062 L 11.453125 32.09375 Z M 10.382812 31.152344 L 11.324219 32.09375 L 10.382812 33.039062 L 9.445312 32.09375 Z M 16.570312 26.367188 C 16.394531 26.347656 16.242188 26.414062 16.132812 26.542969 C 15.980469 26.71875 15.894531 27.003906 15.894531 27.398438 C 15.894531 27.53125 15.914062 27.664062 15.957031 27.730469 C 16.003906 27.816406 16.066406 27.90625 16.175781 27.96875 C 16.375 28.078125 16.722656 28.101562 17.226562 28.058594 C 17.226562 27.398438 17.117188 26.894531 16.898438 26.566406 C 16.832031 26.457031 16.722656 26.390625 16.570312 26.367188 Z M 18.820312 29.964844 C 18.582031 30.800781 18.101562 31.480469 17.378906 32.050781 C 16.636719 32.644531 15.542969 32.992188 14.101562 33.148438 L 13.773438 33.191406 L 13.445312 31.371094 L 13.835938 31.328125 C 15.347656 31.21875 16.351562 30.757812 16.832031 29.945312 C 16.746094 29.945312 16.65625 29.945312 16.570312 29.945312 C 15.71875 29.964844 15.082031 29.679688 14.648438 29.089844 C 14.273438 28.585938 14.101562 27.96875 14.144531 27.222656 C 14.164062 26.523438 14.40625 25.863281 14.84375 25.316406 C 15.324219 24.703125 15.914062 24.394531 16.613281 24.394531 C 17.09375 24.394531 17.511719 24.527344 17.882812 24.789062 C 18.230469 25.050781 18.515625 25.425781 18.734375 25.90625 C 18.910156 26.324219 19.019531 26.960938 19.039062 27.816406 C 19.0625 27.90625 19.0625 27.96875 19.0625 28.058594 L 19.9375 28.035156 L 19.9375 29.964844 Z M 22.339844 29.265625 C 21.796875 29.726562 21.050781 29.964844 20.113281 29.964844 L 19.523438 29.964844 L 19.523438 28.058594 L 20.15625 28.058594 C 20.242188 28.058594 20.308594 28.035156 20.375 28.035156 C 20.789062 27.992188 21.09375 27.859375 21.25 27.664062 C 21.488281 27.3125 21.597656 26.785156 21.53125 26.082031 C 21.488281 25.601562 21.421875 25.164062 21.335938 24.765625 L 21.25 24.417969 L 22.953125 24.066406 L 23.042969 24.351562 C 23.214844 24.8125 23.304688 25.359375 23.324219 26.019531 C 23.414062 27.554688 23.085938 28.628906 22.339844 29.265625 Z M 22.363281 31.152344 L 23.304688 32.09375 L 22.363281 33.039062 L 21.445312 32.09375 Z M 20.375 31.152344 L 21.3125 32.09375 L 20.375 33.039062 L 19.433594 32.09375 Z M 27.457031 27.925781 C 27.675781 27.882812 27.808594 27.792969 27.851562 27.664062 C 27.894531 27.53125 27.894531 27.355469 27.828125 27.136719 C 27.566406 26.347656 26.757812 25.558594 25.402344 24.746094 L 25.074219 24.570312 L 26.101562 23.011719 L 26.386719 23.164062 C 28.351562 24.351562 29.445312 25.667969 29.644531 27.113281 C 29.753906 27.859375 29.597656 28.476562 29.183594 28.9375 C 28.550781 29.617188 27.675781 29.945312 26.496094 29.945312 C 25.46875 29.945312 24.746094 29.902344 24.351562 29.8125 L 24.089844 29.746094 L 24.089844 27.839844 L 24.484375 27.90625 C 25.6875 28.101562 26.671875 28.101562 27.457031 27.925781 Z M 30.757812 20.402344 L 32.59375 20.402344 L 32.59375 29.945312 L 30.757812 29.945312 Z M 36.265625 28.914062 C 36.355469 28.167969 36.179688 27.464844 35.71875 26.808594 L 35.5 26.480469 L 37.140625 25.621094 L 37.292969 25.886719 C 37.972656 26.875 38.234375 27.949219 38.082031 29.15625 C 37.929688 30.339844 37.425781 31.261719 36.59375 31.941406 C 35.765625 32.597656 34.628906 33.015625 33.164062 33.148438 L 32.855469 33.191406 L 32.527344 31.371094 L 32.902344 31.347656 C 33.992188 31.261719 34.800781 30.996094 35.328125 30.601562 C 35.875 30.207031 36.179688 29.636719 36.265625 28.914062 Z M 56.050781 26.566406 C 56.007812 27.355469 55.765625 28.035156 55.308594 28.5625 C 54.871094 29.089844 54.214844 29.460938 53.382812 29.703125 C 52.75 29.878906 51.832031 29.964844 50.628906 29.964844 C 49.207031 29.964844 48.160156 29.855469 47.460938 29.660156 C 46.671875 29.441406 46.0625 29.046875 45.625 28.519531 C 45.1875 27.992188 44.925781 27.335938 44.835938 26.542969 C 44.792969 25.996094 44.878906 25.359375 45.078125 24.636719 L 45.164062 24.328125 L 46.933594 24.722656 L 46.871094 25.050781 C 46.761719 25.710938 46.695312 26.128906 46.714844 26.304688 C 46.738281 26.742188 46.890625 27.070312 47.132812 27.335938 C 47.371094 27.574219 47.742188 27.773438 48.226562 27.882812 C 48.75 27.992188 49.363281 28.035156 50.039062 28.035156 C 50.28125 28.035156 50.476562 28.035156 50.652344 28.035156 C 51.046875 28.035156 51.285156 28.035156 51.371094 28.035156 C 52.050781 28.015625 52.464844 27.96875 52.664062 27.925781 C 53.164062 27.816406 53.535156 27.621094 53.777344 27.355469 C 54.019531 27.113281 54.148438 26.785156 54.171875 26.367188 C 54.191406 26.128906 54.148438 25.710938 54.019531 25.097656 L 53.972656 24.746094 L 55.703125 24.394531 L 55.789062 24.679688 C 55.984375 25.316406 56.074219 25.929688 56.050781 26.566406 Z M 51.417969 22.289062 L 52.355469 23.230469 L 51.417969 24.152344 L 50.5 23.230469 Z M 49.425781 22.289062 L 50.367188 23.230469 L 49.425781 24.152344 L 48.488281 23.230469 Z M 57.363281 26.828125 L 57.363281 20.402344 L 59.175781 20.402344 L 59.175781 26.742188 C 59.175781 27.113281 59.242188 27.398438 59.332031 27.574219 C 59.417969 27.730469 59.546875 27.859375 59.703125 27.925781 C 59.855469 28.015625 60.050781 28.058594 60.335938 28.058594 L 60.96875 28.058594 L 60.96875 29.964844 L 60.183594 29.964844 C 59.636719 29.964844 59.15625 29.855469 58.738281 29.636719 C 58.324219 29.417969 57.996094 29.089844 57.777344 28.648438 C 57.492188 28.078125 57.363281 27.488281 57.363281 26.828125 Z M 60.335938 29.964844 L 60.335938 28.058594 L 65.515625 28.058594 L 65.515625 29.964844 Z M 64.730469 29.964844 L 64.730469 28.058594 L 69.890625 28.058594 L 69.890625 29.964844 Z M 69.101562 29.964844 L 69.101562 28.058594 L 74.28125 28.058594 L 74.28125 29.964844 Z M 77.78125 27.96875 L 78.4375 27.96875 C 79.203125 27.96875 79.902344 27.816406 80.535156 27.53125 C 81.082031 27.269531 81.410156 26.9375 81.476562 26.523438 C 81.519531 26.257812 81.476562 26.0625 81.386719 25.929688 C 81.300781 25.777344 81.105469 25.6875 80.863281 25.644531 C 80.359375 25.558594 79.859375 25.734375 79.355469 26.171875 C 78.785156 26.652344 78.261719 27.269531 77.78125 27.96875 Z M 78.828125 29.964844 L 73.605469 29.964844 L 73.605469 28.058594 L 74.808594 28.058594 L 74.808594 20.402344 L 76.644531 20.402344 L 76.644531 26.566406 C 77.453125 25.292969 78.371094 24.417969 79.398438 23.957031 C 80.273438 23.5625 81.105469 23.539062 81.933594 23.910156 C 82.394531 24.109375 82.722656 24.4375 82.941406 24.898438 C 83.160156 25.335938 83.269531 25.90625 83.269531 26.566406 C 83.269531 27.53125 82.851562 28.34375 82 28.957031 C 81.105469 29.636719 80.054688 29.964844 78.828125 29.964844 Z M 84.296875 26.828125 L 84.296875 20.402344 L 86.132812 20.402344 L 86.132812 26.742188 C 86.132812 27.113281 86.175781 27.398438 86.285156 27.574219 C 86.371094 27.730469 86.480469 27.859375 86.632812 27.925781 C 86.789062 28.015625 87.007812 28.058594 87.269531 28.058594 L 87.902344 28.058594 L 87.902344 29.964844 L 87.136719 29.964844 C 86.570312 29.964844 86.085938 29.855469 85.671875 29.636719 C 85.277344 29.417969 84.949219 29.089844 84.710938 28.648438 C 84.449219 28.078125 84.296875 27.488281 84.296875 26.828125 Z M 89.871094 29.394531 C 89.433594 29.769531 88.863281 29.964844 88.207031 29.964844 L 87.53125 29.964844 L 87.53125 28.058594 L 87.878906 28.058594 C 88.296875 28.058594 88.558594 27.96875 88.6875 27.839844 C 88.84375 27.683594 88.953125 27.464844 88.972656 27.203125 L 89.171875 25.402344 L 90.589844 25.402344 L 90.765625 27.203125 C 90.808594 27.488281 90.898438 27.683594 91.050781 27.839844 C 91.226562 27.96875 91.507812 28.058594 91.945312 28.058594 L 92.316406 28.058594 L 92.316406 29.964844 L 91.53125 29.964844 C 90.875 29.964844 90.308594 29.769531 89.871094 29.394531 Z M 88.753906 31.171875 L 89.695312 32.117188 L 88.753906 33.039062 L 87.816406 32.117188 Z M 94.417969 29.265625 C 93.871094 29.726562 93.128906 29.964844 92.1875 29.964844 L 91.617188 29.964844 L 91.617188 28.058594 L 92.253906 28.058594 C 92.339844 28.058594 92.40625 28.035156 92.449219 28.035156 C 92.886719 27.992188 93.171875 27.859375 93.324219 27.664062 C 93.585938 27.3125 93.671875 26.785156 93.628906 26.082031 C 93.585938 25.601562 93.519531 25.164062 93.410156 24.765625 L 93.324219 24.417969 L 95.027344 24.066406 L 95.136719 24.351562 C 95.292969 24.8125 95.402344 25.359375 95.421875 26.019531 C 95.488281 27.554688 95.160156 28.628906 94.417969 29.265625 Z M 94.855469 21.191406 L 95.792969 22.136719 L 94.855469 23.054688 L 93.9375 22.136719 Z M 92.863281 21.191406 L 93.804688 22.136719 L 92.863281 23.054688 L 91.925781 22.136719 Z M 98.984375 28.914062 C 99.074219 28.167969 98.898438 27.464844 98.4375 26.808594 L 98.21875 26.480469 L 99.839844 25.621094 L 100.011719 25.886719 C 100.667969 26.875 100.929688 27.949219 100.777344 29.15625 C 100.625 30.339844 100.144531 31.261719 99.3125 31.941406 C 98.460938 32.597656 97.324219 33.015625 95.882812 33.148438 L 95.554688 33.191406 L 95.226562 31.371094 L 95.617188 31.347656 C 96.691406 31.261719 97.5 30.996094 98.046875 30.601562 C 98.570312 30.207031 98.898438 29.636719 98.984375 28.914062 Z M 101.804688 20.402344 L 103.640625 20.402344 L 103.640625 29.945312 L 101.804688 29.945312 Z M 114.003906 26.367188 C 113.828125 26.347656 113.699219 26.414062 113.589844 26.542969 C 113.414062 26.71875 113.347656 27.003906 113.347656 27.398438 C 113.328125 27.664062 113.4375 27.839844 113.609375 27.96875 C 113.808594 28.078125 114.15625 28.101562 114.660156 28.058594 C 114.683594 27.398438 114.574219 26.894531 114.355469 26.566406 C 114.289062 26.457031 114.179688 26.390625 114.003906 26.367188 Z M 111.207031 33.167969 L 110.878906 31.371094 L 111.269531 31.347656 C 112.800781 31.195312 113.808594 30.734375 114.289062 29.945312 C 114.199219 29.945312 114.113281 29.945312 114.027344 29.945312 C 113.171875 29.964844 112.515625 29.679688 112.101562 29.089844 C 111.707031 28.585938 111.554688 27.96875 111.578125 27.222656 C 111.597656 26.523438 111.839844 25.863281 112.300781 25.292969 C 112.757812 24.703125 113.347656 24.417969 114.070312 24.394531 C 114.550781 24.394531 114.964844 24.527344 115.335938 24.789062 C 115.6875 25.050781 115.972656 25.425781 116.167969 25.886719 C 116.386719 26.390625 116.496094 27.050781 116.496094 27.839844 C 116.496094 28.453125 116.453125 29.046875 116.34375 29.617188 C 116.167969 30.648438 115.644531 31.457031 114.8125 32.050781 C 113.980469 32.664062 112.890625 33.039062 111.511719 33.148438 Z M 111.207031 33.167969 "/>
</g>
</svg>
