<?xml version="1.0" encoding="UTF-8"?>
<svg xmlns="http://www.w3.org/2000/svg" xmlns:xlink="http://www.w3.org/1999/xlink" width="133pt" height="31pt" viewBox="0 0 133 31" version="1.1">
<g id="surface1">
<path style=" stroke:none;fill-rule:nonzero;fill:rgb(13.72549%,12.156863%,12.54902%);fill-opacity:1;" d="M 111.75 0.328125 C 113.546875 -0.171875 115.484375 -0.0546875 117.285156 0.425781 C 118.832031 0.824219 120.324219 1.492188 121.734375 2.261719 C 122.160156 2.519531 122.585938 2.777344 123.042969 3.015625 C 125.417969 4.542969 127.644531 6.324219 129.683594 8.316406 C 130.71875 9.328125 131.769531 10.320312 132.722656 11.417969 C 129.683594 11.4375 126.644531 11.4375 123.601562 11.449219 C 123.5 11.449219 123.382812 11.472656 123.3125 11.367188 C 122.957031 10.941406 122.585938 10.511719 122.226562 10.066406 C 121.429688 9.222656 120.683594 8.316406 119.851562 7.511719 C 119.355469 7.046875 118.898438 6.570312 118.386719 6.140625 C 116.996094 4.972656 115.535156 3.875 113.886719 3.140625 C 112.5625 2.609375 111.121094 2.261719 109.710938 2.554688 C 108.011719 2.8125 106.585938 3.945312 105.515625 5.285156 C 106.652344 4.113281 108.148438 3.238281 109.777344 3.152344 C 111.683594 3.050781 113.496094 3.808594 115.109375 4.785156 C 115.554688 5.023438 115.925781 5.351562 116.351562 5.625 C 117.574219 6.5 118.675781 7.511719 119.75 8.574219 C 120.289062 9.171875 120.886719 9.722656 121.410156 10.339844 C 122.820312 11.902344 124.128906 13.5625 125.417969 15.226562 L 125.386719 15.226562 C 125.097656 15.226562 124.824219 15.226562 124.554688 15.226562 C 121.855469 15.140625 119.167969 15.070312 116.46875 14.984375 C 116.28125 15.019531 116.234375 14.8125 116.148438 14.695312 C 114.890625 12.65625 113.53125 10.632812 111.695312 9.070312 C 110.761719 8.28125 109.628906 7.632812 108.402344 7.632812 C 107.265625 7.632812 106.210938 8.246094 105.414062 9.035156 C 104.226562 10.21875 103.359375 11.710938 102.609375 13.222656 C 102.289062 13.90625 101.949219 14.589844 101.675781 15.3125 C 101.386719 15.296875 101.097656 15.296875 100.808594 15.277344 C 101.558594 12.433594 102.574219 9.632812 104.023438 7.066406 C 104.96875 5.398438 106.109375 3.839844 107.554688 2.589844 C 108.757812 1.542969 110.1875 0.722656 111.75 0.328125 Z M 111.75 0.328125 "/>
<path style=" stroke:none;fill-rule:nonzero;fill:rgb(7.45098%,23.529412%,54.117647%);fill-opacity:1;" d="M 100.808594 15.277344 C 101.097656 15.296875 101.386719 15.296875 101.675781 15.3125 C 104.394531 15.433594 107.128906 15.449219 109.863281 15.570312 C 110.085938 15.808594 110.21875 16.136719 110.40625 16.410156 C 111.476562 18.089844 112.652344 19.738281 114.089844 21.09375 C 114.972656 21.878906 115.992188 22.617188 117.164062 22.84375 C 118.203125 23.046875 119.300781 22.703125 120.136719 22.050781 C 121.242188 21.210938 122.074219 20.042969 122.789062 18.859375 C 123.449219 17.679688 124.046875 16.476562 124.554688 15.226562 C 124.824219 15.226562 125.097656 15.226562 125.386719 15.226562 C 124.789062 17.488281 124.011719 19.703125 123.007812 21.792969 C 122.140625 23.695312 121.023438 25.464844 119.628906 26.988281 C 118.523438 28.171875 117.21875 29.152344 115.757812 29.75 C 114.585938 30.261719 113.308594 30.484375 112.035156 30.519531 C 111.339844 30.46875 110.628906 30.433594 109.914062 30.316406 C 108.285156 29.988281 106.6875 29.402344 105.195312 28.636719 C 104.53125 28.34375 103.9375 27.929688 103.308594 27.585938 C 100.695312 25.925781 98.296875 23.9375 96.089844 21.742188 C 95.191406 20.921875 94.355469 20.011719 93.507812 19.136719 C 96.617188 19.085938 99.707031 19.101562 102.796875 19.070312 C 105.058594 21.722656 107.398438 24.363281 110.289062 26.300781 C 111.121094 26.835938 111.984375 27.300781 112.902344 27.65625 C 114.074219 28.035156 115.316406 28.257812 116.535156 28.019531 C 118.25 27.707031 119.726562 26.578125 120.78125 25.167969 C 119.96875 25.945312 119.054688 26.664062 118 27.039062 C 117.097656 27.351562 116.113281 27.449219 115.179688 27.300781 C 113.308594 27.039062 111.597656 26.132812 110.085938 25.019531 C 109.25 24.484375 108.535156 23.816406 107.792969 23.183594 C 106.5 21.984375 105.292969 20.699219 104.121094 19.375 C 102.96875 18.054688 101.898438 16.667969 100.808594 15.277344 Z M 100.808594 15.277344 "/>
<path style=" stroke:none;fill-rule:nonzero;fill:rgb(7.45098%,23.529412%,54.117647%);fill-opacity:1;" d="M 8.796875 7.648438 C 8.765625 8.265625 8.574219 8.78125 8.222656 9.191406 C 7.878906 9.601562 7.371094 9.910156 6.726562 10.082031 C 6.234375 10.21875 5.523438 10.304688 4.585938 10.304688 C 3.480469 10.289062 2.667969 10.21875 2.125 10.046875 C 1.511719 9.878906 1.054688 9.585938 0.695312 9.171875 C 0.359375 8.761719 0.152344 8.246094 0.101562 7.613281 C 0.0507812 7.183594 0.121094 6.683594 0.273438 6.140625 L 0.359375 5.898438 L 1.714844 6.1875 L 1.664062 6.464844 C 1.578125 6.960938 1.53125 7.285156 1.542969 7.441406 C 1.578125 7.769531 1.679688 8.042969 1.871094 8.230469 C 2.054688 8.433594 2.339844 8.574219 2.71875 8.660156 C 3.125 8.742188 3.597656 8.796875 4.144531 8.796875 C 4.3125 8.796875 4.46875 8.796875 4.601562 8.796875 C 4.925781 8.796875 5.09375 8.796875 5.160156 8.78125 C 5.691406 8.761719 6.03125 8.742188 6.164062 8.710938 C 6.554688 8.605469 6.839844 8.457031 7.03125 8.265625 C 7.21875 8.0625 7.320312 7.800781 7.335938 7.476562 C 7.355469 7.285156 7.320312 6.960938 7.21875 6.480469 L 7.183594 6.226562 L 8.523438 5.929688 L 8.59375 6.175781 C 8.765625 6.652344 8.816406 7.148438 8.796875 7.648438 Z M 5.195312 4.289062 L 5.925781 5.023438 L 5.195312 5.761719 L 4.484375 5.023438 Z M 3.652344 4.289062 L 4.382812 5.023438 L 3.652344 5.761719 L 2.925781 5.023438 Z M 9.644531 2.8125 L 11.074219 2.8125 L 11.074219 10.289062 L 9.644531 10.289062 Z M 13.941406 9.464844 C 14.011719 8.882812 13.871094 8.332031 13.519531 7.816406 L 13.351562 7.578125 L 14.605469 6.890625 L 14.742188 7.101562 C 15.253906 7.871094 15.457031 8.730469 15.335938 9.65625 C 15.21875 10.578125 14.839844 11.300781 14.199219 11.832031 C 13.554688 12.347656 12.652344 12.667969 11.53125 12.773438 L 11.273438 12.808594 L 11.023438 11.382812 L 11.328125 11.367188 C 12.160156 11.300781 12.789062 11.109375 13.214844 10.78125 C 13.636719 10.476562 13.871094 10.027344 13.941406 9.464844 Z M 17.613281 7.5625 L 18.867188 6.875 L 18.988281 7.132812 C 19.105469 7.375 19.273438 7.699219 19.480469 8.09375 C 19.597656 8.351562 19.753906 8.523438 19.902344 8.625 C 20.074219 8.742188 20.257812 8.796875 20.464844 8.796875 L 20.652344 8.796875 L 20.652344 10.304688 L 20.53125 10.304688 C 20.089844 10.304688 19.753906 10.238281 19.496094 10.132812 C 19.292969 10.917969 18.886719 11.523438 18.257812 11.96875 C 17.628906 12.414062 16.796875 12.667969 15.757812 12.773438 L 15.503906 12.808594 L 15.253906 11.382812 L 15.554688 11.367188 C 16.371094 11.300781 17 11.09375 17.425781 10.78125 C 17.851562 10.476562 18.085938 10.027344 18.171875 9.449219 C 18.238281 8.964844 18.105469 8.417969 17.75 7.800781 Z M 22.992188 7.035156 C 22.875 7.148438 22.828125 7.285156 22.828125 7.460938 C 22.828125 7.613281 22.875 7.769531 22.992188 7.871094 C 23.117188 7.992188 23.265625 8.0625 23.433594 8.0625 C 23.605469 8.0625 23.757812 7.992188 23.878906 7.871094 C 23.996094 7.769531 24.046875 7.613281 24.046875 7.460938 C 24.046875 7.285156 23.996094 7.148438 23.878906 7.035156 C 23.757812 6.910156 23.605469 6.855469 23.433594 6.855469 C 23.265625 6.855469 23.117188 6.910156 22.992188 7.035156 Z M 24.4375 5.695312 C 25.015625 6 25.335938 6.410156 25.425781 6.925781 C 25.507812 7.355469 25.492188 7.769531 25.355469 8.144531 C 25.269531 8.367188 25.136719 8.59375 24.964844 8.78125 C 25.183594 8.796875 25.441406 8.796875 25.761719 8.796875 L 26.546875 8.796875 L 26.546875 10.289062 L 25.03125 10.304688 C 24.507812 10.304688 23.960938 10.117188 23.433594 9.773438 C 22.859375 10.117188 22.332031 10.304688 21.839844 10.304688 L 20.3125 10.304688 L 20.3125 8.796875 L 21.109375 8.796875 C 21.417969 8.796875 21.6875 8.78125 21.90625 8.761719 C 21.753906 8.59375 21.636719 8.402344 21.554688 8.179688 C 21.382812 7.785156 21.363281 7.355469 21.484375 6.910156 C 21.652344 6.292969 22.023438 5.882812 22.585938 5.644531 C 22.84375 5.539062 23.128906 5.46875 23.457031 5.46875 C 23.878906 5.46875 24.199219 5.558594 24.4375 5.695312 Z M 24.128906 3.140625 L 24.863281 3.859375 L 24.128906 4.59375 L 23.402344 3.859375 Z M 22.570312 3.140625 L 23.300781 3.859375 L 22.570312 4.59375 L 21.839844 3.859375 Z M 30.554688 9.6875 C 30.214844 10.082031 29.753906 10.273438 29.179688 10.273438 C 28.546875 10.273438 28.039062 10.152344 27.664062 9.910156 C 27.394531 10.167969 27.019531 10.304688 26.546875 10.304688 L 26.054688 10.304688 L 26.054688 8.796875 L 26.628906 8.796875 C 26.75 8.796875 26.816406 8.78125 26.851562 8.742188 C 26.917969 8.246094 26.96875 7.972656 26.96875 7.957031 L 26.96875 7.925781 C 27.121094 7.339844 27.378906 6.875 27.75 6.535156 C 28.054688 6.242188 28.394531 6.085938 28.789062 6.035156 C 29.296875 5.984375 29.734375 6.105469 30.109375 6.394531 C 30.691406 6.824219 30.957031 7.511719 30.957031 8.457031 C 30.957031 8.988281 30.824219 9.398438 30.554688 9.6875 Z M 29.09375 8.953125 C 29.261719 8.953125 29.394531 8.898438 29.5 8.796875 C 29.585938 8.710938 29.597656 8.503906 29.550781 8.179688 C 29.53125 7.9375 29.480469 7.785156 29.414062 7.664062 C 29.347656 7.5625 29.246094 7.492188 29.144531 7.476562 C 28.871094 7.40625 28.652344 7.492188 28.496094 7.734375 C 28.328125 7.957031 28.246094 8.265625 28.226562 8.675781 C 28.53125 8.863281 28.820312 8.964844 29.09375 8.953125 Z M 36.289062 7.648438 C 36.074219 7.632812 35.917969 7.648438 35.820312 7.664062 C 35.796875 7.9375 35.785156 8.179688 35.820312 8.367188 C 35.867188 8.851562 36.109375 9.070312 36.511719 9.019531 C 36.699219 8.988281 36.800781 8.898438 36.851562 8.710938 C 36.886719 8.59375 36.886719 8.433594 36.871094 8.246094 C 36.851562 8.023438 36.800781 7.886719 36.714844 7.800781 C 36.628906 7.714844 36.480469 7.664062 36.289062 7.648438 Z M 38.226562 8.761719 C 38.296875 8.796875 38.394531 8.796875 38.53125 8.796875 L 39.078125 8.796875 L 39.078125 10.304688 L 38.449219 10.304688 C 38.058594 10.304688 37.734375 10.21875 37.53125 10.066406 C 37.515625 10.082031 37.496094 10.082031 37.496094 10.082031 C 37.246094 10.253906 36.9375 10.339844 36.582031 10.355469 C 36.222656 10.375 35.917969 10.320312 35.683594 10.238281 C 35.308594 10.082031 35.019531 9.84375 34.832031 9.496094 C 34.648438 9.15625 34.523438 8.742188 34.511719 8.265625 C 34.441406 8.503906 34.410156 8.863281 34.410156 9.328125 C 34.410156 9.53125 34.410156 10.066406 34.410156 10.90625 L 34.410156 12.839844 L 32.980469 12.839844 L 32.980469 8.898438 C 33.03125 8.210938 33.21875 7.648438 33.523438 7.214844 C 33.847656 6.789062 34.289062 6.515625 34.863281 6.410156 C 35.628906 6.257812 36.359375 6.257812 37.074219 6.429688 C 37.449219 6.515625 37.734375 6.71875 37.941406 7.035156 C 38.109375 7.285156 38.191406 7.613281 38.226562 8.023438 C 38.246094 8.230469 38.246094 8.46875 38.226562 8.761719 Z M 40.707031 9.84375 C 40.367188 10.152344 39.925781 10.304688 39.417969 10.304688 L 38.890625 10.304688 L 38.890625 8.796875 L 39.160156 8.796875 C 39.488281 8.796875 39.691406 8.742188 39.789062 8.640625 C 39.925781 8.523438 39.992188 8.351562 40.011719 8.128906 L 40.160156 6.71875 L 41.269531 6.71875 L 41.40625 8.128906 C 41.441406 8.351562 41.507812 8.523438 41.640625 8.625 C 41.757812 8.742188 41.996094 8.796875 42.320312 8.796875 L 42.609375 8.796875 L 42.609375 10.304688 L 41.996094 10.304688 C 41.488281 10.304688 41.046875 10.152344 40.707031 9.84375 Z M 41.167969 11.230469 L 41.894531 11.96875 L 41.167969 12.691406 L 40.453125 11.96875 Z M 39.621094 11.230469 L 40.351562 11.96875 L 39.621094 12.691406 L 38.890625 11.96875 Z M 45.53125 8.742188 L 46.023438 8.742188 C 46.636719 8.742188 47.179688 8.625 47.652344 8.386719 C 48.09375 8.195312 48.332031 7.925781 48.402344 7.597656 C 48.417969 7.390625 48.402344 7.238281 48.316406 7.132812 C 48.246094 7.035156 48.113281 6.960938 47.910156 6.925781 C 47.535156 6.855469 47.148438 6.996094 46.738281 7.320312 C 46.296875 7.714844 45.886719 8.179688 45.53125 8.742188 Z M 49.640625 8.417969 C 49.710938 8.503906 49.746094 8.554688 49.777344 8.59375 C 49.980469 8.730469 50.203125 8.796875 50.472656 8.796875 L 50.796875 8.796875 L 50.796875 10.304688 L 50.167969 10.304688 C 49.542969 10.304688 49.027344 10.066406 48.640625 9.621094 C 47.980469 10.066406 47.214844 10.304688 46.34375 10.304688 L 42.289062 10.304688 L 42.289062 8.796875 L 43.207031 8.796875 L 43.207031 2.8125 L 44.628906 2.8125 L 44.628906 7.632812 C 45.257812 6.636719 45.972656 5.949219 46.769531 5.589844 C 47.449219 5.285156 48.113281 5.261719 48.742188 5.558594 C 49.4375 5.863281 49.792969 6.546875 49.792969 7.632812 C 49.792969 7.925781 49.746094 8.179688 49.640625 8.417969 Z M 47.226562 2.832031 L 47.957031 3.566406 L 47.226562 4.304688 L 46.5 3.566406 Z M 52.277344 9.84375 C 51.9375 10.152344 51.511719 10.304688 50.980469 10.304688 L 50.457031 10.304688 L 50.457031 8.796875 L 50.726562 8.796875 C 51.050781 8.796875 51.253906 8.742188 51.375 8.640625 C 51.492188 8.523438 51.558594 8.351562 51.59375 8.128906 L 51.730469 6.71875 L 52.835938 6.71875 L 52.988281 8.128906 C 53.003906 8.351562 53.074219 8.523438 53.207031 8.625 C 53.328125 8.742188 53.5625 8.796875 53.886719 8.796875 L 54.175781 8.796875 L 54.175781 10.304688 L 53.582031 10.304688 C 53.054688 10.304688 52.628906 10.152344 52.277344 9.84375 Z M 51.96875 4.441406 L 52.699219 5.179688 L 51.96875 5.898438 L 51.238281 5.179688 Z M 56.023438 9.742188 C 55.601562 10.117188 55.023438 10.304688 54.292969 10.304688 L 53.835938 10.304688 L 53.835938 8.796875 L 54.328125 8.796875 C 54.394531 8.796875 54.449219 8.796875 54.5 8.796875 C 54.839844 8.742188 55.054688 8.660156 55.179688 8.503906 C 55.382812 8.230469 55.449219 7.816406 55.398438 7.269531 C 55.382812 6.890625 55.3125 6.546875 55.246094 6.242188 L 55.179688 5.964844 L 56.503906 5.675781 L 56.585938 5.898438 C 56.707031 6.257812 56.777344 6.707031 56.808594 7.214844 C 56.859375 8.402344 56.605469 9.242188 56.023438 9.742188 Z M 56.367188 3.429688 L 57.097656 4.167969 L 56.367188 4.902344 L 55.636719 4.167969 Z M 54.820312 3.429688 L 55.535156 4.167969 L 54.820312 4.902344 L 54.089844 4.167969 Z M 66.203125 9.125 C 66.03125 10.066406 65.640625 10.78125 65.011719 11.269531 C 64.398438 11.746094 63.601562 11.96875 62.601562 11.949219 C 61.546875 11.949219 60.714844 11.710938 60.105469 11.214844 C 59.511719 10.714844 59.152344 10.015625 59.066406 9.070312 C 58.96875 8.160156 59.136719 7.285156 59.578125 6.464844 L 59.679688 6.257812 L 61.019531 6.671875 L 60.902344 6.941406 C 60.542969 7.835938 60.40625 8.523438 60.492188 9 C 60.59375 9.496094 60.800781 9.878906 61.121094 10.132812 C 61.460938 10.375 61.9375 10.492188 62.566406 10.511719 C 63.3125 10.527344 63.855469 10.375 64.214844 10.015625 C 64.585938 9.65625 64.773438 9.085938 64.808594 8.28125 C 64.820312 7.90625 64.6875 7.285156 64.4375 6.449219 L 64.347656 6.175781 L 65.722656 5.8125 L 65.808594 6.050781 C 66.214844 7.253906 66.351562 8.265625 66.203125 9.125 Z M 62.601562 4.753906 L 63.332031 5.488281 L 62.601562 6.226562 L 61.882812 5.488281 Z M 67.214844 7.835938 L 67.214844 2.8125 L 68.648438 2.8125 L 68.648438 7.769531 C 68.648438 8.0625 68.679688 8.28125 68.765625 8.433594 C 68.832031 8.554688 68.914062 8.640625 69.035156 8.710938 C 69.152344 8.761719 69.324219 8.796875 69.53125 8.796875 L 70.019531 8.796875 L 70.019531 10.304688 L 69.425781 10.304688 C 68.980469 10.304688 68.609375 10.21875 68.289062 10.027344 C 67.96875 9.859375 67.730469 9.601562 67.542969 9.261719 C 67.339844 8.828125 67.214844 8.351562 67.214844 7.835938 Z M 74.042969 9.6875 C 73.707031 10.082031 73.246094 10.273438 72.671875 10.273438 C 72.042969 10.273438 71.535156 10.152344 71.160156 9.910156 C 70.886719 10.167969 70.511719 10.304688 70.035156 10.304688 L 69.542969 10.304688 L 69.542969 8.796875 L 70.121094 8.796875 C 70.242188 8.796875 70.308594 8.78125 70.34375 8.742188 C 70.414062 8.246094 70.464844 7.972656 70.464844 7.957031 L 70.464844 7.925781 C 70.617188 7.339844 70.871094 6.875 71.246094 6.535156 C 71.546875 6.242188 71.886719 6.085938 72.277344 6.035156 C 72.789062 5.984375 73.234375 6.105469 73.605469 6.394531 C 74.179688 6.824219 74.449219 7.511719 74.449219 8.457031 C 74.449219 8.988281 74.316406 9.398438 74.042969 9.6875 Z M 72.585938 8.953125 C 72.753906 8.953125 72.890625 8.898438 72.992188 8.796875 C 73.078125 8.710938 73.097656 8.503906 73.042969 8.179688 C 73.027344 7.9375 72.976562 7.785156 72.90625 7.664062 C 72.820312 7.5625 72.738281 7.492188 72.636719 7.476562 C 72.367188 7.40625 72.140625 7.492188 71.988281 7.734375 C 71.820312 7.957031 71.738281 8.265625 71.714844 8.675781 C 72.023438 8.863281 72.3125 8.964844 72.585938 8.953125 Z M 77 9.464844 C 77.066406 8.882812 76.914062 8.332031 76.574219 7.816406 L 76.40625 7.578125 L 77.664062 6.890625 L 77.800781 7.101562 C 78.308594 7.871094 78.511719 8.730469 78.394531 9.65625 C 78.277344 10.578125 77.902344 11.300781 77.253906 11.832031 C 76.597656 12.347656 75.710938 12.667969 74.574219 12.773438 L 74.335938 12.808594 L 74.078125 11.382812 L 74.382812 11.367188 C 75.214844 11.300781 75.84375 11.109375 76.269531 10.78125 C 76.679688 10.476562 76.933594 10.027344 77 9.464844 Z M 76.882812 4.371094 L 77.609375 5.109375 L 76.882812 5.847656 L 76.148438 5.109375 Z M 79.363281 7.835938 L 79.363281 2.8125 L 80.769531 2.8125 L 80.769531 7.769531 C 80.769531 8.0625 80.820312 8.28125 80.890625 8.433594 C 80.960938 8.554688 81.042969 8.640625 81.164062 8.710938 C 81.300781 8.761719 81.449219 8.796875 81.652344 8.796875 L 82.148438 8.796875 L 82.148438 10.304688 L 81.550781 10.304688 C 81.128906 10.304688 80.753906 10.21875 80.429688 10.027344 C 80.109375 9.859375 79.851562 9.601562 79.683594 9.261719 C 79.464844 8.828125 79.363281 8.351562 79.363281 7.835938 Z M 83.625 9.996094 C 83.316406 10.203125 82.996094 10.304688 82.621094 10.304688 L 81.671875 10.304688 L 81.671875 8.796875 L 82.300781 8.796875 C 82.605469 8.796875 82.824219 8.730469 82.980469 8.605469 C 83.132812 8.488281 83.234375 8.265625 83.269531 7.992188 L 83.453125 6.890625 L 84.472656 6.890625 L 84.59375 8.007812 C 84.628906 8.296875 84.695312 8.503906 84.8125 8.640625 C 84.949219 8.761719 85.136719 8.828125 85.375 8.828125 C 85.628906 8.828125 85.8125 8.796875 85.898438 8.730469 C 86.003906 8.660156 86.070312 8.539062 86.085938 8.386719 L 86.257812 6.890625 L 87.34375 6.890625 L 87.496094 8.265625 C 87.511719 8.503906 87.578125 8.660156 87.664062 8.742188 C 87.769531 8.828125 87.90625 8.863281 88.105469 8.828125 C 88.332031 8.816406 88.480469 8.539062 88.566406 8.007812 C 88.601562 7.800781 88.582031 7.5625 88.546875 7.285156 C 88.5 6.875 88.429688 6.570312 88.34375 6.378906 L 88.210938 6.070312 L 89.566406 5.78125 L 89.652344 5.984375 C 89.824219 6.363281 89.90625 6.910156 89.941406 7.613281 C 89.976562 8.367188 89.824219 9 89.480469 9.496094 C 89.109375 10.027344 88.648438 10.289062 88.089844 10.304688 C 87.480469 10.304688 87.035156 10.152344 86.746094 9.84375 C 86.476562 10.152344 86.019531 10.304688 85.394531 10.304688 C 84.710938 10.289062 84.214844 10.117188 83.914062 9.792969 C 83.84375 9.84375 83.742188 9.929688 83.625 9.996094 Z M 83.625 9.996094 "/>
<path style=" stroke:none;fill-rule:nonzero;fill:rgb(7.45098%,23.529412%,54.117647%);fill-opacity:1;" d="M 4.703125 23.417969 C 4.535156 23.40625 4.398438 23.320312 4.296875 23.199219 C 4.195312 23.078125 4.128906 22.925781 4.074219 22.75 C 4.039062 22.652344 4.023438 22.566406 4.023438 22.496094 C 4.007812 22.429688 4.007812 22.359375 4.039062 22.257812 C 4.0625 22.171875 4.09375 22.085938 4.160156 22.035156 C 4.210938 21.984375 4.277344 21.945312 4.363281 21.929688 L 7.710938 21.929688 L 7.710938 23.417969 L 7.152344 23.417969 C 7.183594 23.59375 7.199219 23.78125 7.152344 23.988281 C 7.117188 24.265625 6.980469 24.523438 6.742188 24.742188 C 6.503906 24.984375 6.199219 25.207031 5.789062 25.410156 C 4.976562 25.859375 3.957031 26.027344 2.765625 25.910156 C 1.957031 25.839844 1.339844 25.5625 0.902344 25.085938 C 0.476562 24.625 0.257812 23.972656 0.234375 23.148438 C 0.234375 22.566406 0.359375 21.914062 0.628906 21.191406 L 0.710938 20.96875 L 2.070312 21.316406 L 1.988281 21.589844 C 1.800781 22.171875 1.699219 22.667969 1.699219 23.0625 C 1.714844 23.558594 1.851562 23.917969 2.125 24.160156 C 2.410156 24.402344 2.855469 24.523438 3.480469 24.523438 C 4.175781 24.523438 4.824219 24.332031 5.417969 23.972656 C 5.523438 23.902344 5.605469 23.835938 5.671875 23.78125 C 5.742188 23.714844 5.773438 23.664062 5.808594 23.644531 C 5.828125 23.609375 5.828125 23.578125 5.839844 23.558594 C 5.839844 23.523438 5.789062 23.472656 5.722656 23.417969 Z M 9.597656 22.875 C 9.167969 23.238281 8.59375 23.417969 7.863281 23.417969 L 7.402344 23.417969 L 7.402344 21.929688 L 7.894531 21.929688 C 7.964844 21.929688 8.015625 21.914062 8.066406 21.914062 C 8.390625 21.878906 8.628906 21.777344 8.746094 21.625 C 8.933594 21.347656 9.019531 20.933594 8.96875 20.386719 C 8.933594 20.011719 8.882812 19.667969 8.816406 19.355469 L 8.746094 19.085938 L 10.070312 18.8125 L 10.15625 19.035156 C 10.273438 19.394531 10.339844 19.820312 10.375 20.335938 C 10.425781 21.535156 10.171875 22.378906 9.597656 22.875 Z M 9.628906 24.347656 L 10.359375 25.085938 L 9.628906 25.824219 L 8.898438 25.085938 Z M 8.066406 24.347656 L 8.796875 25.085938 L 8.066406 25.824219 L 7.335938 25.085938 Z M 12.871094 20.609375 C 12.734375 20.59375 12.621094 20.644531 12.53125 20.746094 C 12.417969 20.886719 12.347656 21.105469 12.347656 21.417969 C 12.347656 21.519531 12.363281 21.625 12.394531 21.671875 C 12.433594 21.742188 12.484375 21.8125 12.566406 21.859375 C 12.722656 21.945312 12.992188 21.964844 13.382812 21.929688 C 13.382812 21.417969 13.296875 21.023438 13.128906 20.765625 C 13.074219 20.679688 12.992188 20.628906 12.871094 20.609375 Z M 14.621094 23.417969 C 14.433594 24.074219 14.0625 24.605469 13.5 25.054688 C 12.925781 25.515625 12.074219 25.789062 10.957031 25.910156 L 10.699219 25.945312 L 10.445312 24.523438 L 10.75 24.484375 C 11.925781 24.402344 12.703125 24.039062 13.074219 23.40625 C 13.007812 23.40625 12.9375 23.40625 12.871094 23.40625 C 12.210938 23.417969 11.71875 23.199219 11.378906 22.738281 C 11.089844 22.34375 10.957031 21.859375 10.988281 21.28125 C 11.003906 20.730469 11.191406 20.214844 11.53125 19.785156 C 11.902344 19.308594 12.363281 19.070312 12.90625 19.070312 C 13.28125 19.070312 13.601562 19.171875 13.894531 19.375 C 14.164062 19.578125 14.386719 19.875 14.554688 20.246094 C 14.691406 20.574219 14.773438 21.070312 14.792969 21.742188 C 14.808594 21.8125 14.808594 21.859375 14.808594 21.929688 L 15.488281 21.914062 L 15.488281 23.417969 Z M 17.355469 22.875 C 16.933594 23.238281 16.355469 23.417969 15.625 23.417969 L 15.167969 23.417969 L 15.167969 21.929688 L 15.660156 21.929688 C 15.726562 21.929688 15.777344 21.914062 15.828125 21.914062 C 16.152344 21.878906 16.386719 21.777344 16.507812 21.625 C 16.695312 21.347656 16.78125 20.933594 16.726562 20.386719 C 16.695312 20.011719 16.640625 19.667969 16.574219 19.355469 L 16.507812 19.085938 L 17.832031 18.8125 L 17.902344 19.035156 C 18.035156 19.394531 18.105469 19.820312 18.121094 20.335938 C 18.191406 21.535156 17.933594 22.378906 17.355469 22.875 Z M 17.371094 24.347656 L 18.105469 25.085938 L 17.371094 25.824219 L 16.660156 25.085938 Z M 15.828125 24.347656 L 16.558594 25.085938 L 15.828125 25.824219 L 15.097656 25.085938 Z M 21.328125 21.828125 C 21.5 21.792969 21.601562 21.722656 21.636719 21.625 C 21.667969 21.519531 21.667969 21.382812 21.621094 21.210938 C 21.417969 20.59375 20.789062 19.976562 19.734375 19.34375 L 19.480469 19.207031 L 20.277344 17.988281 L 20.5 18.105469 C 22.023438 19.035156 22.875 20.0625 23.03125 21.191406 C 23.117188 21.777344 22.992188 22.257812 22.671875 22.617188 C 22.183594 23.148438 21.5 23.40625 20.585938 23.40625 C 19.785156 23.40625 19.226562 23.375 18.917969 23.304688 L 18.714844 23.25 L 18.714844 21.761719 L 19.023438 21.8125 C 19.957031 21.964844 20.722656 21.964844 21.328125 21.828125 Z M 23.894531 15.945312 L 25.320312 15.945312 L 25.320312 23.40625 L 23.894531 23.40625 Z M 28.175781 22.597656 C 28.246094 22.015625 28.105469 21.464844 27.75 20.957031 L 27.578125 20.699219 L 28.855469 20.027344 L 28.972656 20.234375 C 29.5 21.003906 29.703125 21.847656 29.585938 22.789062 C 29.464844 23.714844 29.078125 24.433594 28.429688 24.964844 C 27.785156 25.480469 26.902344 25.804688 25.761719 25.910156 L 25.523438 25.945312 L 25.269531 24.523438 L 25.5625 24.5 C 26.410156 24.433594 27.035156 24.226562 27.445312 23.917969 C 27.867188 23.609375 28.105469 23.167969 28.175781 22.597656 Z M 43.546875 20.765625 C 43.511719 21.382812 43.320312 21.914062 42.964844 22.324219 C 42.625 22.738281 42.117188 23.027344 41.472656 23.214844 C 40.980469 23.351562 40.265625 23.417969 39.332031 23.417969 C 38.226562 23.417969 37.414062 23.335938 36.871094 23.183594 C 36.257812 23.011719 35.785156 22.703125 35.445312 22.289062 C 35.101562 21.878906 34.898438 21.367188 34.832031 20.746094 C 34.796875 20.320312 34.863281 19.820312 35.019531 19.253906 L 35.085938 19.015625 L 36.460938 19.320312 L 36.414062 19.578125 C 36.328125 20.097656 36.277344 20.425781 36.289062 20.5625 C 36.3125 20.902344 36.425781 21.160156 36.617188 21.367188 C 36.800781 21.554688 37.089844 21.707031 37.464844 21.792969 C 37.875 21.878906 38.351562 21.914062 38.875 21.914062 C 39.0625 21.914062 39.214844 21.914062 39.351562 21.914062 C 39.65625 21.914062 39.84375 21.914062 39.910156 21.914062 C 40.4375 21.898438 40.757812 21.859375 40.914062 21.828125 C 41.304688 21.742188 41.589844 21.589844 41.777344 21.382812 C 41.964844 21.191406 42.066406 20.933594 42.085938 20.609375 C 42.097656 20.425781 42.066406 20.097656 41.964844 19.617188 L 41.929688 19.34375 L 43.277344 19.070312 L 43.34375 19.289062 C 43.492188 19.785156 43.5625 20.265625 43.546875 20.765625 Z M 39.945312 17.421875 L 40.675781 18.15625 L 39.945312 18.878906 L 39.230469 18.15625 Z M 38.394531 17.421875 L 39.128906 18.15625 L 38.394531 18.878906 L 37.667969 18.15625 Z M 44.5625 20.96875 L 44.5625 15.945312 L 45.972656 15.945312 L 45.972656 20.902344 C 45.972656 21.191406 46.023438 21.417969 46.09375 21.554688 C 46.160156 21.671875 46.257812 21.777344 46.382812 21.828125 C 46.5 21.898438 46.652344 21.929688 46.875 21.929688 L 47.363281 21.929688 L 47.363281 23.417969 L 46.753906 23.417969 C 46.328125 23.417969 45.957031 23.335938 45.632812 23.167969 C 45.3125 22.992188 45.054688 22.738281 44.886719 22.390625 C 44.664062 21.945312 44.5625 21.488281 44.5625 20.96875 Z M 46.875 23.417969 L 46.875 21.929688 L 50.898438 21.929688 L 50.898438 23.417969 Z M 50.285156 23.417969 L 50.285156 21.929688 L 54.292969 21.929688 L 54.292969 23.417969 Z M 53.683594 23.417969 L 53.683594 21.929688 L 57.707031 21.929688 L 57.707031 23.417969 Z M 60.425781 21.859375 L 60.9375 21.859375 C 61.53125 21.859375 62.074219 21.742188 62.566406 21.519531 C 62.988281 21.316406 63.246094 21.054688 63.296875 20.730469 C 63.332031 20.523438 63.296875 20.371094 63.226562 20.265625 C 63.160156 20.148438 63.007812 20.078125 62.820312 20.042969 C 62.429688 19.976562 62.042969 20.113281 61.648438 20.457031 C 61.207031 20.832031 60.800781 21.316406 60.425781 21.859375 Z M 61.238281 23.417969 L 57.183594 23.417969 L 57.183594 21.929688 L 58.117188 21.929688 L 58.117188 15.945312 L 59.542969 15.945312 L 59.542969 20.765625 C 60.171875 19.769531 60.882812 19.085938 61.683594 18.722656 C 62.359375 18.417969 63.007812 18.398438 63.652344 18.6875 C 64.011719 18.84375 64.265625 19.101562 64.4375 19.460938 C 64.605469 19.804688 64.6875 20.246094 64.6875 20.765625 C 64.6875 21.519531 64.367188 22.152344 63.703125 22.632812 C 63.007812 23.167969 62.191406 23.417969 61.238281 23.417969 Z M 65.488281 20.96875 L 65.488281 15.945312 L 66.914062 15.945312 L 66.914062 20.902344 C 66.914062 21.191406 66.945312 21.417969 67.035156 21.554688 C 67.101562 21.671875 67.183594 21.777344 67.304688 21.828125 C 67.421875 21.898438 67.59375 21.929688 67.796875 21.929688 L 68.289062 21.929688 L 68.289062 23.417969 L 67.695312 23.417969 C 67.253906 23.417969 66.878906 23.335938 66.554688 23.167969 C 66.25 22.992188 65.996094 22.738281 65.808594 22.390625 C 65.605469 21.945312 65.488281 21.488281 65.488281 20.96875 Z M 69.816406 22.976562 C 69.476562 23.269531 69.035156 23.417969 68.527344 23.417969 L 68 23.417969 L 68 21.929688 L 68.269531 21.929688 C 68.59375 21.929688 68.800781 21.859375 68.898438 21.761719 C 69.019531 21.636719 69.105469 21.464844 69.117188 21.261719 L 69.273438 19.855469 L 70.375 19.855469 L 70.511719 21.261719 C 70.546875 21.488281 70.617188 21.636719 70.734375 21.761719 C 70.871094 21.859375 71.089844 21.929688 71.429688 21.929688 L 71.714844 21.929688 L 71.714844 23.417969 L 71.109375 23.417969 C 70.597656 23.417969 70.15625 23.269531 69.816406 22.976562 Z M 68.949219 24.363281 L 69.679688 25.101562 L 68.949219 25.824219 L 68.222656 25.101562 Z M 73.347656 22.875 C 72.925781 23.238281 72.347656 23.417969 71.617188 23.417969 L 71.175781 23.417969 L 71.175781 21.929688 L 71.671875 21.929688 C 71.738281 21.929688 71.785156 21.914062 71.820312 21.914062 C 72.164062 21.878906 72.382812 21.777344 72.5 21.625 C 72.703125 21.347656 72.769531 20.933594 72.738281 20.386719 C 72.703125 20.011719 72.652344 19.667969 72.566406 19.355469 L 72.5 19.085938 L 73.824219 18.8125 L 73.910156 19.035156 C 74.03125 19.394531 74.113281 19.820312 74.132812 20.335938 C 74.179688 21.535156 73.929688 22.378906 73.347656 22.875 Z M 73.6875 16.5625 L 74.417969 17.300781 L 73.6875 18.019531 L 72.976562 17.300781 Z M 72.140625 16.5625 L 72.875 17.300781 L 72.140625 18.019531 L 71.414062 17.300781 Z M 76.898438 22.597656 C 76.96875 22.015625 76.832031 21.464844 76.472656 20.957031 L 76.304688 20.699219 L 77.5625 20.027344 L 77.695312 20.234375 C 78.207031 21.003906 78.410156 21.847656 78.292969 22.789062 C 78.171875 23.714844 77.800781 24.433594 77.152344 24.964844 C 76.492188 25.480469 75.609375 25.804688 74.488281 25.910156 L 74.234375 25.945312 L 73.976562 24.523438 L 74.28125 24.5 C 75.117188 24.433594 75.746094 24.226562 76.171875 23.917969 C 76.574219 23.609375 76.832031 23.167969 76.898438 22.597656 Z M 79.089844 15.945312 L 80.515625 15.945312 L 80.515625 23.40625 L 79.089844 23.40625 Z M 88.566406 20.609375 C 88.429688 20.59375 88.332031 20.644531 88.242188 20.746094 C 88.105469 20.886719 88.058594 21.105469 88.058594 21.417969 C 88.039062 21.625 88.128906 21.761719 88.261719 21.859375 C 88.414062 21.945312 88.683594 21.964844 89.074219 21.929688 C 89.09375 21.417969 89.007812 21.023438 88.839844 20.765625 C 88.789062 20.679688 88.703125 20.628906 88.566406 20.609375 Z M 86.394531 25.925781 L 86.136719 24.523438 L 86.441406 24.5 C 87.632812 24.382812 88.414062 24.023438 88.789062 23.40625 C 88.71875 23.40625 88.648438 23.40625 88.582031 23.40625 C 87.921875 23.417969 87.410156 23.199219 87.089844 22.738281 C 86.78125 22.34375 86.664062 21.859375 86.679688 21.28125 C 86.695312 20.730469 86.882812 20.214844 87.242188 19.769531 C 87.597656 19.308594 88.058594 19.085938 88.617188 19.070312 C 88.992188 19.070312 89.3125 19.171875 89.601562 19.375 C 89.875 19.578125 90.097656 19.875 90.246094 20.234375 C 90.414062 20.628906 90.503906 21.140625 90.503906 21.761719 C 90.503906 22.242188 90.46875 22.703125 90.382812 23.148438 C 90.246094 23.953125 89.839844 24.589844 89.195312 25.054688 C 88.546875 25.53125 87.703125 25.824219 86.628906 25.910156 Z M 86.394531 25.925781 "/>
</g>
</svg>
